<svg width="1788" height="1030" viewBox="0 0 1788 1030" fill="none" xmlns="http://www.w3.org/2000/svg">
<path d="M1787 1H2.05009C2.05009 1 -0.312618 659.05 2.05009 845.317C4.41281 1031.58 203.541 635.916 393.755 607.215C583.969 578.515 672.409 622.001 853.003 845.317C1033.6 1068.63 1346 1026 1408 1026C1470 1026 1636 949.5 1787 845.317V1Z" fill="#1879C1"/>
<path d="M1787 1H2.05009C2.05009 1 -0.312618 659.05 2.05009 845.317C4.41281 1031.58 203.541 635.916 393.755 607.215C583.969 578.515 672.409 622.001 853.003 845.317C1033.6 1068.63 1346 1026 1408 1026C1470 1026 1636 949.5 1787 845.317V1Z" fill="black" fill-opacity="0.16"/>
<path d="M1787 1H2.05009C2.05009 1 -0.312618 659.05 2.05009 845.317C4.41281 1031.58 203.541 635.916 393.755 607.215C583.969 578.515 672.409 622.001 853.003 845.317C1033.6 1068.63 1346 1026 1408 1026C1470 1026 1636 949.5 1787 845.317V1Z" stroke="#DF1818"/>
</svg>
